HIERARCHY
ROOT reference
{
  OFFSET 0 0 0
  CHANNELS 6 Xposition Yposition Zposition Zrotation Xrotation Yrotation
  JOINT Hips
  {
    OFFSET 12.0226 89.8381 99.6105
    CHANNELS 6 Xposition Yposition Zposition Zrotation Xrotation Yrotation
    JOINT Spine
    {
      OFFSET 0 7.57377 0
      CHANNELS 6 Xposition Yposition Zposition Zrotation Xrotation Yrotation
      JOINT Spine1
      {
        OFFSET 0 21.6353 0
        CHANNELS 6 Xposition Yposition Zposition Zrotation Xrotation Yrotation
        JOINT Neck
        {
          OFFSET 0 21.5464 1.95876
          CHANNELS 6 Xposition Yposition Zposition Zrotation Xrotation Yrotation
          JOINT Head
          {
            OFFSET 0 12.9308 -1.84726
            CHANNELS 6 Xposition Yposition Zposition Zrotation Xrotation Yrotation
            End Site
            {
              OFFSET 0 23.0907 0
            }
          }
        }
        JOINT LeftShoulder
        {
          OFFSET 3.70822 19.5981 -0.368577
          CHANNELS 6 Xposition Yposition Zposition Zrotation Xrotation Yrotation
          JOINT LeftArm
          {
            OFFSET 11.1726 0 0
            CHANNELS 6 Xposition Yposition Zposition Zrotation Xrotation Yrotation
            JOINT LeftForeArm
            {
              OFFSET 28.6421 0 0
              CHANNELS 6 Xposition Yposition Zposition Zrotation Xrotation Yrotation
              JOINT LeftHand
              {
                OFFSET 23.9346 0 0
                CHANNELS 6 Xposition Yposition Zposition Zrotation Xrotation Yrotation
                End Site
                {
                  OFFSET 13.8545 0 0
                }
              }
            }
          }
        }
        JOINT RightShoulder
        {
          OFFSET -3.63664 19.5981 -0.368577
          CHANNELS 6 Xposition Yposition Zposition Zrotation Xrotation Yrotation
          JOINT RightArm
          {
            OFFSET -11.1726 0 0
            CHANNELS 6 Xposition Yposition Zposition Zrotation Xrotation Yrotation
            JOINT RightForeArm
            {
              OFFSET -28.6421 0 0
              CHANNELS 6 Xposition Yposition Zposition Zrotation Xrotation Yrotation
              JOINT RightHand
              {
                OFFSET -23.9346 0 0
                CHANNELS 6 Xposition Yposition Zposition Zrotation Xrotation Yrotation
                End Site
                {
                  OFFSET -13.8545 0 0
                }
              }
            }
          }
        }
      }
    }
    JOINT LeftUpLeg
    {
      OFFSET 9.2363 0 0
      CHANNELS 6 Xposition Yposition Zposition Zrotation Xrotation Yrotation
      JOINT LeftLeg
      {
        OFFSET 0 -40.7061 0
        CHANNELS 6 Xposition Yposition Zposition Zrotation Xrotation Yrotation
        JOINT LeftFoot
        {
          OFFSET 0 -40.9975 0
          CHANNELS 6 Xposition Yposition Zposition Zrotation Xrotation Yrotation
          JOINT LeftToeBase
          {
            OFFSET 0 -6.00359 13.8545
            CHANNELS 6 Xposition Yposition Zposition Zrotation Xrotation Yrotation
            End Site
            {
              OFFSET 0 0 3.69452
            }
          }
        }
      }
    }
    JOINT RightUpLeg
    {
      OFFSET -9.2363 0 0
      CHANNELS 6 Xposition Yposition Zposition Zrotation Xrotation Yrotation
      JOINT RightLeg
      {
        OFFSET 0 -40.7061 0
        CHANNELS 6 Xposition Yposition Zposition Zrotation Xrotation Yrotation
        JOINT RightFoot
        {
          OFFSET 0 -40.9975 0
          CHANNELS 6 Xposition Yposition Zposition Zrotation Xrotation Yrotation
          JOINT RightToeBase
          {
            OFFSET 0 -6.00359 13.8545
            CHANNELS 6 Xposition Yposition Zposition Zrotation Xrotation Yrotation
            End Site
            {
              OFFSET 0 0 3.69452
            }
          }
        }
      }
    }
  }
}
MOTION
Frames:	4
Frame Time:	0.004
0 0 0 0 0 -0 -26.9635 82.4504 -169.207 -0.351323 -1.15646 9.00809 0 7.57377 0 -2.03608 -4.87422 -0.342692 3.55271e-015 21.6353 2.84217e-014 0.596641 -3.76844 -0.236671 0 21.5464 1.95876 -1.85949 15.1608 5.04822 7.10543e-015 12.9308 -1.84726 3.57468 15.3641 5.30003 3.70822 19.5981 -0.368577 14.348 0.088835 -11.8888 11.1726 2.84217e-014 -2.84217e-014 -26.0817 5.80623 -0.428355 28.6421 2.84217e-014 0 2.8539 -3.79101 0.55069 23.9346 -2.84217e-014 0 10.4098 -3.92771 -1.34448 -3.63664 19.5981 -0.368577 -16.3184 -0.733905 -5.48717 -11.1726 0 2.84217e-014 25.1313 1.70111 10.2642 -28.6421 0 -2.84217e-014 -0.571621 -2.02197 -4.05585 -23.9346 2.84217e-014 2.84217e-014 -21.4083 -1.94906 -0.493111 9.2363 0 0 2.69444 -2.58762 3.60848 0 -40.7061 0 1.7001 9.38931 1.63011 7.10543e-015 -40.9975 0 -3.03134 -11.4945 -13.0237 3.55271e-015 -6.00359 13.8545 -4.96962e-016 7.95139e-016 1.98785e-016 -9.2363 1.42109e-014 0 -2.97898 2.84893 4.31126 -1.42109e-014 -40.7061 0 3.84824 5.26671 -0.837419 0 -40.9975 2.84217e-014 -11.4607 -12.0967 -14.2197 0 -6.00359 13.8545 4.06266e-015 0 -2.98177e-016 
0 0 0 0 0 -0 -26.8609 82.4504 -169.123 -0.324653 -1.1044 9.08407 0 7.57377 0 -2.01199 -5.03078 -0.362683 -3.55271e-015 21.6353 0 0.548886 -3.7972 -0.256311 0 21.5464 1.95876 -1.79848 15.2339 5.04998 7.10543e-015 12.9308 -1.84726 3.59114 15.4552 5.30236 3.70822 19.5981 -0.368577 14.3937 0.037876 -11.8782 11.1726 2.84217e-014 0 -26.0692 6.09701 -0.465112 28.6421 0 0 2.92178 -3.85564 0.699698 23.9346 0 2.84217e-014 9.65386 -3.98714 -1.34457 -3.63664 19.5981 -0.368577 -16.3943 -0.805069 -5.51517 -11.1726 2.84217e-014 -2.84217e-014 25.1264 1.73367 10.2304 -28.6421 0 0 -0.556287 -1.93874 -4.14094 -23.9346 -5.68434e-014 0 -21.261 -1.8265 -0.705403 9.2363 0 2.84217e-014 2.65203 -2.23104 3.67531 7.10543e-015 -40.7061 0 1.54701 8.73177 1.45862 -3.55271e-015 -40.9975 2.84217e-014 -2.74472 -11.4595 -12.9166 -1.77636e-015 -6.00359 13.8545 -2.48481e-016 7.95139e-016 -0 -9.2363 0 2.84217e-014 -3.04409 2.849 4.29159 7.10543e-015 -40.7061 -2.84217e-014 3.82135 5.3344 -0.885398 7.10543e-015 -40.9975 -2.84217e-014 -11.3882 -12.1549 -14.252 -7.10543e-015 -6.00359 13.8545 1.2424e-017 -1.59028e-015 9.93923e-017 
0 0 0 0 0 -0 -26.8117 82.4504 -169.08 -0.318468 -1.08402 9.12035 0 7.57377 0 -1.99376 -5.09522 -0.374362 0 21.6353 0 0.524032 -3.82801 -0.268318 0 21.5464 1.95876 -1.77224 15.2757 5.05451 -7.10543e-015 12.9308 -1.84726 3.60496 15.5054 5.30365 3.70822 19.5981 -0.368577 14.4212 0.031271 -11.8638 11.1726 0 0 -26.042 6.06147 -0.46854 28.6421 0 2.84217e-014 2.89176 -3.77305 0.704697 23.9346 0 -2.84217e-014 9.31093 -3.90005 -1.34443 -3.63664 19.5981 -0.368577 -16.4281 -0.823076 -5.52322 -11.1726 0 0 25.1315 1.7068 10.2242 -28.6421 -2.84217e-014 -2.84217e-014 -0.550379 -1.89136 -4.18375 -23.9346 0 0 -21.2337 -1.75728 -0.823062 9.2363 -1.42109e-014 0 2.64612 -2.05061 3.70877 0 -40.7061 2.84217e-014 1.46463 8.41364 1.33133 -1.06581e-014 -40.9975 2.84217e-014 -2.5815 -11.4702 -12.8397 0 -6.00359 13.8545 1.01877e-015 -7.95139e-016 3.97569e-016 -9.2363 0 2.84217e-014 -3.06529 2.84663 4.20954 0 -40.7061 -2.84217e-014 3.7955 5.38969 -0.847716 0 -40.9975 -2.84217e-014 -11.3556 -12.1955 -14.2439 0 -6.00359 13.8545 -1.00635e-015 -1.59028e-015 -0 
0 0 0 0 0 -0 -26.76 82.4504 -169.032 -0.310558 -1.07602 9.13569 0 7.57377 0 -1.9712 -5.15464 -0.377788 0 21.6353 0 0.498485 -3.85632 -0.272271 -3.55271e-015 21.5464 1.95876 -1.74533 15.3283 5.06452 7.10543e-015 12.9308 -1.84726 3.61576 15.5415 5.31184 3.70822 19.5981 -0.368577 14.2737 -0.215702 -11.8212 11.1726 2.84217e-014 0 -25.8652 6.353 -0.382249 28.6421 0 0 2.82927 -3.73033 0.72763 23.9346 -2.84217e-014 2.84217e-014 9.00525 -3.85441 -1.35071 -3.63664 19.5981 -0.368577 -16.4746 -0.838445 -5.51821 -11.1726 0 0 25.1428 1.65345 10.2138 -28.6421 0 0 -0.541384 -1.82568 -4.22641 -23.9346 0 -2.84217e-014 -21.1524 -1.66751 -0.954706 9.2363 0 2.84217e-014 2.64071 -1.84656 3.74989 0 -40.7061 0 1.38136 8.1003 1.21581 0 -40.9975 -2.84217e-014 -2.43051 -11.5215 -12.7241 0 -6.00359 13.8545 -2.23633e-016 0 1.98785e-016 -9.2363 -1.42109e-014 2.84217e-014 -3.09322 2.8588 4.16306 7.10543e-015 -40.7061 2.84217e-014 3.77764 5.43764 -0.797374 0 -40.9975 -2.84217e-014 -11.3922 -12.237 -14.2671 -7.10543e-015 -6.00359 13.8545 7.95139e-016 1.59028e-015 -2.98177e-016 
